<?xml version="1.0" encoding="utf-8"?>
<!-- Generator: Adobe Illustrator 21.0.2, SVG Export Plug-In . SVG Version: 6.00 Build 0)  -->
<svg version="1.1" xmlns="http://www.w3.org/2000/svg" xmlns:xlink="http://www.w3.org/1999/xlink" x="0px" y="0px"
	 viewBox="0 0 502 502" style="enable-background:new 0 0 502 502;" xml:space="preserve">
<style type="text/css">
	.st0{fill:none;stroke:#FFFFFF;stroke-width:9;stroke-linecap:round;stroke-linejoin:round;stroke-miterlimit:10;}
</style>
<g id="Background">
</g>
<g id="Objects">
	<g>
		<g>
			<path class="st0" d="M90.6,235C148,109.2,362,113.7,418.8,237.2"/>
		</g>
		<g>
			<g>
				<path class="st0" d="M99.5,192.3c34.1-48.6,92.8-69.6,153.5-69.6"/>
			</g>
			<g>
				<path class="st0" d="M406.5,192.3c-34.1-48.6-92.8-69.6-153.5-69.6"/>
			</g>
		</g>
		<g>
			<g>
				<path class="st0" d="M107.4,162c34.8-41.3,89.3-59.3,145.6-59.3"/>
			</g>
			<g>
				<path class="st0" d="M398.6,162c-34.8-41.3-89.3-59.3-145.6-59.3"/>
			</g>
		</g>
		<g>
			<g>
				<path class="st0" d="M116.4,133.1c34.8-34.4,84.9-49.6,136.6-49.6"/>
			</g>
			<g>
				<path class="st0" d="M389.6,133.1C354.8,98.8,304.7,83.6,253,83.6"/>
			</g>
		</g>
		<g>
			<g>
				<path class="st0" d="M134.3,100c33.1-23.8,75.3-34.5,118.7-34.5"/>
			</g>
			<g>
				<path class="st0" d="M371.7,100C338.7,76.3,296.4,65.5,253,65.5"/>
			</g>
		</g>
		<g>
			<g>
				<path class="st0" d="M99.5,349.9c34.1,48.6,92.8,69.6,153.5,69.6"/>
			</g>
			<g>
				<path class="st0" d="M402.7,351.7c-34.1,48.6-88.9,67.8-149.7,67.8"/>
			</g>
		</g>
		<g>
			<g>
				<path class="st0" d="M107.4,380.2c34.8,41.3,89.3,59.3,145.6,59.3"/>
			</g>
			<g>
				<path class="st0" d="M398.6,380.2c-34.8,41.3-89.3,59.3-145.6,59.3"/>
			</g>
		</g>
		<g>
			<g>
				<path class="st0" d="M116.4,409c34.8,34.4,84.9,49.6,136.6,49.6"/>
			</g>
			<g>
				<path class="st0" d="M389.6,409c-34.8,34.4-84.9,49.6-136.6,49.6"/>
			</g>
		</g>
		<g>
			<g>
				<path class="st0" d="M134.3,442.1c33.1,23.8,75.3,34.5,118.7,34.5"/>
			</g>
			<g>
				<path class="st0" d="M371.7,442.1c-33.1,23.8-75.3,34.5-118.7,34.5"/>
			</g>
		</g>
		<g>
			<g>
				<path class="st0" d="M155.8,69.9c29-14.7,62.7-21.4,97.2-21.4"/>
			</g>
			<g>
				<path class="st0" d="M350.2,69.9c-29-14.7-62.7-21.4-97.2-21.4"/>
			</g>
		</g>
		<g>
			<path class="st0" d="M86,265.7c13.5-8,18.8-24,30.4-40s41.6-65,136.6-65"/>
			<path class="st0" d="M420,265.7c-13.5-8-18.8-24-30.4-40c-11.6-16-41.6-65-136.6-65"/>
		</g>
		<g>
			<g>
				<path class="st0" d="M118.7,343c13.5,17.4,45.3,57.7,134.3,57.7"/>
				<path class="st0" d="M253,400.7"/>
			</g>
			<g>
				<path class="st0" d="M387.3,343c-13.5,17.4-45.3,57.7-134.3,57.7"/>
				<path class="st0" d="M253,400.7"/>
			</g>
		</g>
		<g>
			<g>
				<g>
					<path class="st0" d="M144,339.7c17,22.7,50.7,42,109,42"/>
					<path class="st0" d="M253,381.7"/>
				</g>
				<g>
					<path class="st0" d="M253,381.7"/>
					<path class="st0" d="M253,381.7"/>
				</g>
			</g>
			<g>
				<g>
					<path class="st0" d="M370,333.7c-19.2,24-53,48-117,48"/>
					<path class="st0" d="M253,381.7"/>
				</g>
				<g>
					<path class="st0" d="M253,381.7"/>
					<path class="st0" d="M253,381.7"/>
				</g>
			</g>
		</g>
		<g>
			<g>
				<g>
					<path class="st0" d="M177,343.7c15,13.3,46.4,18,76,18"/>
					<path class="st0" d="M253,361.7"/>
				</g>
				<g>
					<path class="st0" d="M253,361.7"/>
					<path class="st0" d="M253,361.7"/>
				</g>
			</g>
		</g>
		<g>
			<g>
				<g>
					<path class="st0" d="M354.7,320.3c-26.3,33.8-64.5,41.3-102.3,41.3"/>
					<path class="st0" d="M252.3,361.7"/>
				</g>
				<g>
					<path class="st0" d="M252.3,361.7"/>
					<path class="st0" d="M252.3,361.7"/>
				</g>
			</g>
		</g>
		<path class="st0" d="M84,291.7c14-5,31.7-27.5,47.2-48.9C163,198.7,187,179.7,253,179.7"/>
		<path class="st0" d="M422,291.7c-14-5-31.7-27.5-47.2-48.9C343,198.7,319,179.7,253,179.7"/>
		<path class="st0" d="M172.3,42.7c21.5-6.7,44.4-13.3,82.4-13.3"/>
		<path class="st0" d="M333.7,42.7c-21.5-6.7-44.4-13.3-82.4-13.3"/>
		<path class="st0" d="M86,313.7c69-29,60.3-116,168.4-116c39.2,0,71,31.8,71,71s-31.8,71-71,71c-71.3,0-94-33.8-163-10.8"/>
		<path class="st0" d="M420,313.7c-44.1-18.5-56.5-60.8-87.9-88.8"/>
		<path class="st0" d="M136.6,302.8c19.8,0,36.5,4.4,53.6,8.9c18.6,4.9,37.7,9.9,64.1,9.9c29.2,0,53-23.8,53-53
			c0-29.2-23.8-53-53-53c-50,0-73.5,24.4-95.9,55.3c-7.6,10.5-15.8,21.7-25.8,31.9C134,302.8,135.3,302.8,136.6,302.8z"/>
		<path class="st0" d="M254.4,303.7c-24.1,0-41.3-4.5-59.5-9.3c-8.6-2.3-17.3-4.6-26.5-6.3c1.6-2.2,3.2-4.4,4.7-6.5
			c21.7-29.9,43-47.9,81.4-47.9c19.3,0,35,15.7,35,35S273.7,303.7,254.4,303.7z"/>
		<path class="st0" d="M254.4,285.7c-21.7,0-37.1-4.1-55-8.8c-0.1,0-0.3-0.1-0.4-0.1c6.2-7.8,25.3-25.1,55.4-25.1
			c9.4,0,17,7.6,17,17C271.4,278.1,263.8,285.7,254.4,285.7z"/>
		<path class="st0" d="M418.8,332.3c-41.8-4.7-65.5-56-74.2-66.7c0,0,5.5,30-12.5,50"/>
	</g>
</g>
</svg>
